<?xml version="1.0" encoding="utf-8"?>
<!-- Generator: Adobe Illustrator 15.1.0, SVG Export Plug-In  -->
<!DOCTYPE svg PUBLIC "-//W3C//DTD SVG 1.1//EN" "http://www.w3.org/Graphics/SVG/1.1/DTD/svg11.dtd" [
	<!ENTITY ns_flows "http://ns.adobe.com/Flows/1.0/">
]>
<svg version="1.1"
	 xmlns="http://www.w3.org/2000/svg" xmlns:xlink="http://www.w3.org/1999/xlink" xmlns:a="http://ns.adobe.com/AdobeSVGViewerExtensions/3.0/"
	 x="0px" y="0px" width="55px" height="55px" viewBox="0 0 55 55" enable-background="new 0 0 55 55" xml:space="preserve">
<defs>
</defs>
<path fill="#ECECEC" d="M43.621,32.241c-6.273,0-11.38,5.104-11.38,11.38S37.348,55,43.621,55S55,49.896,55,43.621
	S49.895,32.241,43.621,32.241z M43.621,53.104c-5.229,0-9.482-4.254-9.482-9.48c0-5.229,4.254-9.482,9.482-9.482
	s9.48,4.254,9.48,9.482C53.104,48.85,48.85,53.104,43.621,53.104z"/>
<path fill="#ECECEC" d="M49.311,42.672h-4.74v-4.74c0-0.523-0.426-0.947-0.947-0.947c-0.523,0-0.949,0.424-0.949,0.947v5.689
	c0,0.523,0.426,0.947,0.949,0.947h5.688c0.524,0,0.948-0.424,0.948-0.947S49.835,42.672,49.311,42.672z"/>
<path fill="#ECECEC" d="M25.603,19.914h-1.896h-6.639h-1.896H6.639v8.534v1.896v6.639v1.896v8.535h8.533h1.896h8.535v-8.535v-1.896
	v-6.639h6.638h1.896h8.534v-10.43h-8.534h-1.896H25.603z M34.139,21.811h6.639v6.638h-6.639V21.811z M17.068,21.811h6.639v6.638
	h-6.639V21.811z M8.535,21.811h6.637v6.638H8.535V21.811z M8.535,30.346h6.637v6.639H8.535V30.346z M15.172,45.518H8.535v-6.639
	h6.637V45.518z M23.707,45.518h-6.639v-6.639h6.639V45.518z M23.707,36.982h-6.639v-6.64h6.639V36.982z M32.241,28.448h-6.638V21.81
	h6.638V28.448z"/>
<path fill="#ECECEC" d="M31.293,52.154H1.896V15.172h45.518V27.5c0,0.523,0.423,0.948,0.947,0.948c0.525,0,0.947-0.425,0.947-0.948
	V14.224V4.742c0-0.525-0.422-0.949-0.947-0.949h-4.74V0.948C43.621,0.424,43.195,0,42.672,0h-6.637
	c-0.523,0-0.949,0.424-0.949,0.948v2.845H14.225V0.948c0-0.524-0.424-0.948-0.95-0.948H6.638C6.113,0,5.689,0.424,5.689,0.948v2.845
	h-4.74C0.424,3.793,0,4.217,0,4.742v9.482v38.877c0,0.524,0.424,0.948,0.949,0.948h30.344c0.523,0,0.948-0.424,0.948-0.948
	C32.241,52.579,31.816,52.154,31.293,52.154z M36.982,1.896h4.74v2.845v2.844h-4.74V4.742V1.896z M7.586,1.896h4.742v2.845v2.844
	H7.586V4.742V1.896z M1.896,5.689h3.793v2.845c0,0.524,0.424,0.948,0.949,0.948h6.637c0.525,0,0.949-0.423,0.949-0.948V5.689h20.861
	v2.845c0,0.524,0.425,0.948,0.949,0.948h6.637c0.524,0,0.949-0.423,0.949-0.948V5.689h3.793v7.586H1.896V5.689z"/>
</svg>
