<?xml version="1.0" encoding="utf-8"?>
<!-- Generator: Adobe Illustrator 15.1.0, SVG Export Plug-In  -->
<!DOCTYPE svg PUBLIC "-//W3C//DTD SVG 1.1//EN" "http://www.w3.org/Graphics/SVG/1.1/DTD/svg11.dtd" [
	<!ENTITY ns_flows "http://ns.adobe.com/Flows/1.0/">
]>
<svg version="1.1"
	 xmlns="http://www.w3.org/2000/svg" xmlns:xlink="http://www.w3.org/1999/xlink" xmlns:a="http://ns.adobe.com/AdobeSVGViewerExtensions/3.0/"
	 x="0px" y="0px" width="55px" height="55px" viewBox="0 0 55 55" enable-background="new 0 0 55 55" xml:space="preserve">
<defs>
</defs>
<path fill="#ECECEC" d="M5.469,47.882c0.123,0,0.247-0.024,0.366-0.077c2.924-1.271,7.862-1.936,14.682-1.971l0.662,1.326
	c0.228,0.451,0.779,0.638,1.23,0.408c0.453-0.228,0.637-0.775,0.41-1.229l-0.916-1.833C21.748,44.195,21.43,44,21.083,44
	c-7.47,0-12.698,0.695-15.98,2.124c-0.464,0.203-0.676,0.742-0.474,1.207C4.779,47.676,5.116,47.882,5.469,47.882z"/>
<path fill="#ECECEC" d="M53.166,49.5h-1.832v-4.583c0-0.243-0.098-0.478-0.27-0.647l-5.508-5.508
	c0.174-0.357,0.276-0.755,0.276-1.179c0-1.517-1.233-2.75-2.75-2.75s-2.75,1.233-2.75,2.75s1.233,2.75,2.75,2.75
	c0.422,0,0.817-0.104,1.179-0.274l5.237,5.237V49.5H1.833C0.822,49.5,0,50.322,0,51.334v2.75C0,54.59,0.41,55,0.917,55
	c0.505,0,0.916-0.41,0.916-0.916v-2.75h51.333v2.75c0,0.506,0.41,0.916,0.918,0.916C54.589,55,55,54.59,55,54.084v-2.75
	C55,50.322,54.175,49.5,53.166,49.5z M43.083,38.5c-0.507,0-0.918-0.411-0.918-0.917c0-0.505,0.411-0.916,0.918-0.916
	c0.506,0,0.916,0.411,0.916,0.916C44,38.089,43.589,38.5,43.083,38.5z"/>
<path fill="#ECECEC" d="M13.087,27.419c0.668,1.74,2.879,7.351,4.483,9.757l0.145,0.219c1.177,1.785,3.146,4.772,9.785,4.772
	c6.639,0,8.607-2.987,9.785-4.772l0.145-0.219c1.604-2.406,3.814-8.017,4.483-9.757C43.109,27.122,44,26.038,44,24.75v-3.666
	c0-1.195-0.768-2.215-1.832-2.593v-4.74c0-3.619-1.906-10.304-8.955-10.95c-0.015-0.433-0.156-0.781-0.316-1.039
	C31.994,0.305,29.464,0,27.5,0C11.189,0,11,15.428,11,15.583c0,0.506,0.41,0.916,0.915,0.916h0.002c0.505,0,0.915-0.409,0.917-0.915
	c0.002-0.561,0.208-13.751,14.667-13.751c2.592,0,3.631,0.561,3.836,0.893c0.028,0.047,0.106,0.172-0.073,0.531
	c-0.143,0.284-0.125,0.622,0.041,0.892c0.168,0.27,0.463,0.435,0.78,0.435c8.127,0,8.25,8.793,8.25,9.167v5.5
	c0,0.506,0.409,0.917,0.916,0.917c0.508,0,0.918,0.411,0.918,0.917v3.666c0,0.506-0.412,0.917-0.918,0.917
	c-0.382,0-0.724,0.237-0.858,0.594c-0.025,0.073-2.732,7.267-4.486,9.897l-0.15,0.227c-1.098,1.667-2.604,3.948-8.253,3.948
	c-5.651,0-7.155-2.281-8.253-3.948l-0.15-0.227c-1.753-2.63-4.46-9.824-4.488-9.897c-0.134-0.357-0.476-0.594-0.858-0.594
	c-0.505,0-0.917-0.412-0.917-0.917v-3.666c0-0.249,0.099-0.474,0.26-0.639c0.333,0.747,1.012,1.419,2.154,1.533l3.137,2.353
	c0.245,1.785,1.764,3.171,3.616,3.171h1.833c2.022,0,3.667-1.645,3.667-3.667c0,2.022,1.645,3.667,3.667,3.667h1.834
	c1.853,0,3.373-1.386,3.615-3.172l3.353-2.511c0.403-0.304,0.485-0.878,0.182-1.284c-0.303-0.405-0.877-0.489-1.282-0.183
	l-2.336,1.752c-0.351-1.117-1.382-1.936-2.614-1.936h-3.666c-1.517,0-2.75,1.233-2.75,2.75c0-1.517-1.234-2.75-2.75-2.75h-3.667
	c-1.231,0-2.263,0.818-2.614,1.936l-1.749-1.312c0.722-1.743,1.375-4.322,1.561-6.133c2.889-0.051,11.249-0.404,14.968-2.725
	c0.843,3.256,3.55,5.996,3.687,6.132c0.358,0.358,0.938,0.358,1.297,0c0.357-0.358,0.357-0.938,0-1.296
	c-0.034-0.034-3.398-3.436-3.398-6.686c0-0.412-0.275-0.774-0.672-0.884c-0.396-0.11-0.82,0.059-1.031,0.411
	c-1.334,2.223-9.993,3.223-15.713,3.223c-0.506,0-0.917,0.41-0.917,0.917c0,1.488-0.703,4.46-1.451,6.288
	c-0.292-0.175-0.375-0.504-0.382-0.788c0-0.506-0.411-0.917-0.917-0.917c-1.517,0-2.75,1.234-2.75,2.75v3.666
	C11,26.038,11.89,27.122,13.087,27.419z M29.333,22.917c0-0.505,0.41-0.917,0.916-0.917h3.668c0.506,0,0.916,0.412,0.916,0.917
	v0.917c0,1.011-0.821,1.833-1.832,1.833h-1.834c-1.011,0-1.832-0.822-1.832-1.833v-0.917H29.333z M20.166,22.917
	c0-0.505,0.412-0.917,0.917-0.917h3.667c0.505,0,0.917,0.412,0.917,0.917v0.917c0,1.011-0.822,1.833-1.833,1.833h-1.833
	c-1.011,0-1.833-0.822-1.833-1.833v-0.917H20.166z"/>
<path fill="#ECECEC" d="M32.082,33.003c0.002-0.505-0.408-0.917-0.912-0.92c-0.02,0-1.656-0.019-3.261-0.819
	c-0.258-0.129-0.562-0.129-0.819,0c-1.604,0.803-3.244,0.819-3.257,0.819c-0.506,0-0.917,0.411-0.917,0.917s0.411,0.917,0.917,0.917
	c0.078,0,1.809-0.011,3.666-0.821c1.856,0.813,3.589,0.821,3.667,0.821C31.671,33.917,32.08,33.508,32.082,33.003z"/>
<path fill="#ECECEC" d="M33.914,44.037c-0.344,0.003-0.656,0.195-0.814,0.501l-0.916,1.795c-0.229,0.451-0.051,1.004,0.4,1.233
	c0.133,0.066,0.275,0.101,0.415,0.101c0.333,0,0.655-0.183,0.817-0.5l0.662-1.296c5.01,0.014,9.045,0.389,12.002,1.113
	c0.492,0.123,0.987-0.18,1.106-0.67c0.121-0.492-0.179-0.988-0.67-1.109C43.707,44.416,39.354,44.006,33.914,44.037z"/>
<path fill="#ECECEC" d="M26.583,44.917v1.833c0,0.506,0.411,0.917,0.917,0.917c0.505,0,0.917-0.411,0.917-0.917v-1.833
	C28.417,44.41,28.005,44,27.5,44C26.994,44,26.583,44.41,26.583,44.917z"/>
<path fill="#ECECEC" d="M26.583,34.833c-0.505,0-0.916,0.411-0.916,0.917s0.411,0.917,0.916,0.917h1.834
	c0.506,0,0.916-0.411,0.916-0.917s-0.41-0.917-0.916-0.917H26.583z"/>
</svg>
