<?xml version="1.0" encoding="utf-8"?>
<!-- Generator: Adobe Illustrator 15.1.0, SVG Export Plug-In  -->
<!DOCTYPE svg PUBLIC "-//W3C//DTD SVG 1.1//EN" "http://www.w3.org/Graphics/SVG/1.1/DTD/svg11.dtd" [
	<!ENTITY ns_flows "http://ns.adobe.com/Flows/1.0/">
]>
<svg version="1.1"
	 xmlns="http://www.w3.org/2000/svg" xmlns:xlink="http://www.w3.org/1999/xlink" xmlns:a="http://ns.adobe.com/AdobeSVGViewerExtensions/3.0/"
	 x="0px" y="0px" width="55px" height="55px" viewBox="-6.666 0.022 55 55" enable-background="new -6.666 0.022 55 55"
	 xml:space="preserve">
<defs>
</defs>
<path fill="#ECECEC" d="M40.57,0H1.097C0.492,0,0,0.491,0,1.097v52.852c0,0.604,0.492,1.097,1.097,1.097H40.57
	c0.605,0,1.098-0.492,1.098-1.097V1.097C41.668,0.491,41.176,0,40.57,0z M39.474,52.851H2.194V2.193h37.28V52.851z"/>
<path fill="#ECECEC" d="M7.128,18.092h9.539c0.606,0,1.096-0.491,1.096-1.096v-9.54c0-0.605-0.49-1.096-1.096-1.096H7.128
	c-0.606,0-1.097,0.491-1.097,1.096v9.54C6.031,17.601,6.522,18.092,7.128,18.092z M8.224,8.553h7.347v7.346H8.224V8.553z"/>
<path fill="#ECECEC" d="M7.128,33.553h9.539c0.606,0,1.096-0.491,1.096-1.096v-2.084c0-0.605-0.49-1.097-1.096-1.097
	c-0.605,0-1.096,0.491-1.096,1.097v0.986H8.224v-7.346h6.799c0.604,0,1.096-0.491,1.096-1.097c0-0.605-0.492-1.096-1.096-1.096
	H7.128c-0.606,0-1.097,0.491-1.097,1.096v9.541C6.031,33.062,6.522,33.553,7.128,33.553z"/>
<path fill="#ECECEC" d="M7.128,48.903h9.539c0.606,0,1.096-0.49,1.096-1.096v-9.54c0-0.605-0.49-1.096-1.096-1.096H7.128
	c-0.606,0-1.097,0.49-1.097,1.096v9.54C6.031,48.413,6.522,48.903,7.128,48.903z M8.224,39.364h7.347v7.347H8.224V39.364z"/>
<path fill="#ECECEC" d="M29.167,10.855h5.482c0.605,0,1.097-0.491,1.097-1.097s-0.491-1.097-1.097-1.097h-5.482
	c-0.605,0-1.097,0.491-1.097,1.097S28.562,10.855,29.167,10.855z"/>
<path fill="#ECECEC" d="M22.698,10.855h1.864c0.605,0,1.096-0.491,1.096-1.097s-0.49-1.097-1.096-1.097h-1.864
	c-0.605,0-1.097,0.491-1.097,1.097S22.093,10.855,22.698,10.855z"/>
<path fill="#ECECEC" d="M22.698,15.351h11.951c0.605,0,1.097-0.491,1.097-1.096c0-0.606-0.491-1.097-1.097-1.097H22.698
	c-0.605,0-1.097,0.491-1.097,1.097C21.602,14.86,22.093,15.351,22.698,15.351z"/>
<path fill="#ECECEC" d="M34.649,24.232h-5.482c-0.605,0-1.097,0.491-1.097,1.097c0,0.606,0.491,1.097,1.097,1.097h5.482
	c0.605,0,1.097-0.49,1.097-1.097C35.746,24.724,35.255,24.232,34.649,24.232z"/>
<path fill="#ECECEC" d="M22.698,26.426h1.864c0.605,0,1.096-0.49,1.096-1.097c0-0.605-0.49-1.097-1.096-1.097h-1.864
	c-0.605,0-1.097,0.491-1.097,1.097C21.602,25.936,22.093,26.426,22.698,26.426z"/>
<path fill="#ECECEC" d="M22.698,30.921h11.951c0.605,0,1.097-0.49,1.097-1.096c0-0.606-0.491-1.097-1.097-1.097H22.698
	c-0.605,0-1.097,0.49-1.097,1.097C21.602,30.431,22.093,30.921,22.698,30.921z"/>
<path fill="#ECECEC" d="M34.649,39.474h-5.482c-0.605,0-1.097,0.492-1.097,1.097c0,0.605,0.491,1.097,1.097,1.097h5.482
	c0.605,0,1.097-0.491,1.097-1.097C35.746,39.966,35.255,39.474,34.649,39.474z"/>
<path fill="#ECECEC" d="M22.698,41.667h1.864c0.605,0,1.096-0.491,1.096-1.097c0-0.604-0.49-1.097-1.096-1.097h-1.864
	c-0.605,0-1.097,0.492-1.097,1.097C21.602,41.176,22.093,41.667,22.698,41.667z"/>
<path fill="#ECECEC" d="M22.698,46.163h11.951c0.605,0,1.097-0.491,1.097-1.097s-0.491-1.097-1.097-1.097H22.698
	c-0.605,0-1.097,0.491-1.097,1.097S22.093,46.163,22.698,46.163z"/>
<path fill="#ECECEC" d="M11.065,25.907c-0.438-0.419-1.132-0.402-1.55,0.034c-0.418,0.439-0.403,1.133,0.035,1.551l2.779,2.67
	c0.213,0.213,0.494,0.32,0.775,0.32c0.28,0,0.561-0.107,0.775-0.32l6.523-6.525c0.429-0.428,0.429-1.122,0-1.55
	c-0.428-0.428-1.122-0.428-1.55,0l-5.759,5.759L11.065,25.907z"/>
</svg>
