<?xml version="1.0" encoding="utf-8"?>
<!-- Generator: Adobe Illustrator 15.1.0, SVG Export Plug-In  -->
<!DOCTYPE svg PUBLIC "-//W3C//DTD SVG 1.1//EN" "http://www.w3.org/Graphics/SVG/1.1/DTD/svg11.dtd" [
	<!ENTITY ns_flows "http://ns.adobe.com/Flows/1.0/">
]>
<svg version="1.1"
	 xmlns="http://www.w3.org/2000/svg" xmlns:xlink="http://www.w3.org/1999/xlink" xmlns:a="http://ns.adobe.com/AdobeSVGViewerExtensions/3.0/"
	 x="0px" y="0px" width="55px" height="55px" viewBox="0 -4 55 55" enable-background="new 0 -4 55 55" xml:space="preserve">
<defs>
</defs>
<path fill="#ECECEC" d="M48.246,1.656H6.506c-0.458,0-0.828-0.371-0.828-0.829S6.048,0,6.506,0h41.74
	c0.456,0,0.828,0.371,0.828,0.828C49.074,1.286,48.702,1.656,48.246,1.656z"/>
<path fill="#ECECEC" d="M50.613,47.159H4.141C1.856,47.159,0,45.301,0,43.02V9.464c0-2.283,1.857-4.141,4.141-4.141h46.472
	c2.285,0,4.142,1.858,4.142,4.141v33.558C54.754,45.303,52.896,47.159,50.613,47.159z M4.141,6.979
	c-1.369,0-2.484,1.115-2.484,2.485v33.558c0,1.369,1.115,2.481,2.484,2.481h46.472c1.369,0,2.484-1.112,2.484-2.481V9.464
	c0-1.37-1.115-2.485-2.484-2.485H4.141z"/>
<path fill="#ECECEC" d="M41.605,6.979H13.147c-0.458,0-0.828-0.372-0.828-0.828c0-0.458,0.37-0.828,0.828-0.828h28.46
	c0.457,0,0.828,0.371,0.828,0.828C42.438,6.607,42.066,6.979,41.605,6.979z"/>
<path fill="#ECECEC" d="M28.311,39.004H8.823c-0.457,0-0.827-0.372-0.827-0.828V35.96c0-1.382,0.807-2.659,2.058-3.251l4.386-2.695
	c-1.417-1.149-2.295-2.854-2.368-4.699l-0.166-4.368c0-3.337,2.726-6.027,6.082-6.027h1.155c3.353,0,6.083,2.691,6.083,5.996
	l-0.169,4.398c-0.072,1.851-0.951,3.556-2.373,4.703l4.433,2.713c1.229,0.598,2.019,1.863,2.019,3.231v2.214
	C29.139,38.632,28.77,39.004,28.311,39.004z M9.652,37.348h17.831v-1.386c0-0.749-0.438-1.437-1.113-1.756
	c-0.026-0.013-0.053-0.026-0.078-0.041L20.7,30.742C20.444,30.583,20.292,30.3,20.305,30c0.015-0.303,0.188-0.57,0.458-0.707
	c1.563-0.781,2.575-2.329,2.64-4.044l0.169-4.367c0-2.36-1.984-4.307-4.426-4.307h-1.157c-2.44,0-4.425,1.946-4.425,4.338
	l0.167,4.335c0.065,1.711,1.072,3.259,2.631,4.04c0.269,0.136,0.445,0.403,0.457,0.704c0.012,0.302-0.14,0.585-0.395,0.742
	l-5.582,3.428c-0.753,0.361-1.19,1.05-1.19,1.793V37.348L9.652,37.348z"/>
<path fill="#ECECEC" d="M46.048,20.433H35.814c-0.457,0-0.828-0.372-0.828-0.828c0-0.458,0.371-0.829,0.828-0.829h10.232
	c0.455,0,0.827,0.371,0.827,0.829C46.877,20.062,46.503,20.433,46.048,20.433z"/>
<path fill="#ECECEC" d="M46.048,27.786H35.814c-0.457,0-0.828-0.369-0.828-0.826c0-0.458,0.371-0.828,0.828-0.828h10.232
	c0.455,0,0.827,0.37,0.827,0.828C46.877,27.417,46.503,27.786,46.048,27.786z"/>
<path fill="#ECECEC" d="M46.048,35.145H35.814c-0.457,0-0.828-0.369-0.828-0.826c0-0.459,0.371-0.829,0.828-0.829h10.232
	c0.455,0,0.827,0.37,0.827,0.829C46.877,34.773,46.503,35.145,46.048,35.145z"/>
</svg>
