<?xml version="1.0" encoding="utf-8"?>
<!-- Generator: Adobe Illustrator 15.1.0, SVG Export Plug-In . SVG Version: 6.00 Build 0)  -->
<!DOCTYPE svg PUBLIC "-//W3C//DTD SVG 1.1//EN" "http://www.w3.org/Graphics/SVG/1.1/DTD/svg11.dtd">
<svg version="1.1" id="Capa_1" xmlns="http://www.w3.org/2000/svg" xmlns:xlink="http://www.w3.org/1999/xlink" x="0px" y="0px"
	 width="21.5px" height="19.35px" viewBox="0 25.599 21.5 19.35" enable-background="new 0 25.599 21.5 19.35" xml:space="preserve"
	>
<g>
	<g id="hamburger">
		<g>
			<path fill="#FFFFFF" d="M20.425,42.799H1.075C0.482,42.799,0,43.281,0,43.874s0.482,1.075,1.075,1.075h19.35
				c0.593,0,1.075-0.482,1.075-1.075S21.018,42.799,20.425,42.799z M1.075,27.749h19.35c0.593,0,1.075-0.481,1.075-1.075
				c0-0.593-0.482-1.075-1.075-1.075H1.075C0.482,25.599,0,26.081,0,26.674C0,27.268,0.482,27.749,1.075,27.749z M20.425,34.199
				H1.075C0.482,34.199,0,34.681,0,35.274c0,0.593,0.482,1.075,1.075,1.075h19.35c0.593,0,1.075-0.481,1.075-1.075
				C21.5,34.681,21.018,34.199,20.425,34.199z"/>
		</g>
	</g>
</g>
</svg>
