<svg width="400" height="40" viewBox="0 0 400 40" fill="none" xmlns="http://www.w3.org/2000/svg">
<path d="M17.7925 21.7872C16.3773 23.6676 10 23.6659 10 30.8568L20.0712 30.8571H30C30 23.7868 23.8348 23.6702 22.2822 21.881L22.0978 20.9066C24.0595 19.893 25.4381 17.5022 25.4381 14.7125C25.4381 11.0055 23.0032 8 20.0004 8C16.9975 8 14.5626 11.0055 14.5626 14.7125C14.5626 17.5262 15.9662 19.9319 17.9545 20.9298L17.7925 21.7872Z" fill="white"/>
<path d="M189.941 10H170.059C168.369 10 167 11.4922 167 13.3332V26.6668C167 28.5069 168.369 30 170.059 30H189.941C191.631 30 193 28.5069 193 26.6668V13.3332C193 11.4922 191.631 10 189.941 10ZM169.386 26.5225C169.589 23.985 171.54 21.9162 174.091 21.4205V19.2178C173.162 18.6586 172.515 17.4725 172.515 16.0872C172.515 14.1663 173.75 12.6088 175.273 12.6088C176.796 12.6088 178.03 14.1663 178.03 16.0872C178.03 17.4725 177.383 18.6586 176.455 19.2178V21.4205C179.005 21.9162 180.956 23.985 181.159 26.5225H169.386ZM190.636 25.6529H183.545V23.9136H190.636V25.6529ZM190.636 22.1744H183.545V20.4352H190.636V22.1744ZM190.636 18.696H183.545V16.9568H190.636V18.696ZM190.636 15.2176H183.545V13.4784H190.636V15.2176Z" fill="white"/>
<path d="M99.6129 30.8064C99.6129 28.5156 99.6129 21.7159 99.6129 18.4194C99.6129 13.7742 88 13 88 13V25.3871C88 25.3871 99.6129 26.9355 99.6129 30.8064Z" fill="white"/>
<path d="M88 27.3224V28.0966C88.0759 28.0966 95.6026 28.1477 99.3156 32.6024L99.9102 32.1062C95.9688 27.3766 88.3236 27.3224 88 27.3224Z" fill="white"/>
<path d="M100.387 30.8064C100.387 28.5156 100.387 21.7159 100.387 18.4194C100.387 13.7742 112 13 112 13V25.3871C112 25.3871 100.387 26.9355 100.387 30.8064Z" fill="white"/>
<path d="M112 27.3224V28.0966C112 28.0966 104.545 28.1477 100.832 32.6024L100.164 32.1062C104.106 27.3766 112 27.3224 112 27.3224Z" fill="white"/>
<path d="M340 24L337.031 21.4011L328.542 28.6783C328.85 28.9646 329.267 29.1428 329.726 29.1428H350.274C350.731 29.1428 351.146 28.9646 351.453 28.6783L342.969 21.4011L340 24Z" fill="white"/>
<path d="M351.458 12.4646C351.15 12.1766 350.735 12 350.274 12H329.726C329.269 12 328.854 12.1783 328.545 12.468L340 22.2857L351.458 12.4646Z" fill="white"/>
<path d="M328 13.5051V27.7474L336.285 20.7068L328 13.5051Z" fill="white"/>
<path d="M343.715 20.7069L352 27.7474V13.5L343.715 20.7069Z" fill="white"/>
<path fill-rule="evenodd" clip-rule="evenodd" d="M61 5.034C68.488 5.526 74.472 11.512 74.964 19H74.9672C74.989 19.3305 75 19.664 75 20C75 20.336 74.989 20.6695 74.9672 21H74.964C74.472 28.488 68.488 34.472 61 34.964V34.9672C60.6695 34.989 60.336 35 60 35C59.664 35 59.3305 34.989 59 34.9672V34.964C51.512 34.472 45.526 28.488 45.034 21H45.0328C45.011 20.6695 45 20.336 45 20C45 19.664 45.011 19.3305 45.0328 19H45.034C45.526 11.512 51.512 5.526 59 5.034V5.0328C59.3305 5.01105 59.664 5 60 5C60.336 5 60.6695 5.01105 61 5.0328V5.034ZM61 5.0328C68.4875 5.52564 74.4744 11.5125 74.9672 19H75V20V21H74.9672C74.4744 28.4875 68.4875 34.4744 61 34.9672V35H60H59V34.9672C51.5125 34.4744 45.5256 28.4875 45.0328 21H45V20V19H45.0328C45.5256 11.5125 51.5125 5.52564 59 5.0328V5H60H61V5.0328ZM52.038 13C52.622 11.164 53.424 9.554 54.39 8.27C52.198 9.32 50.346 10.966 49.042 13H52.038ZM51.512 15H47.996C47.476 16.246 47.144 17.592 47.038 19H51.02C51.074 17.606 51.244 16.264 51.512 15ZM51.02 21H47.038C47.144 22.408 47.476 23.754 47.996 25H51.512C51.244 23.736 51.074 22.394 51.02 21ZM52.036 27H49.042C50.346 29.036 52.198 30.68 54.39 31.73C53.422 30.446 52.62 28.836 52.036 27ZM54.1 27C55.174 30.114 56.944 32.322 59 32.872V27H54.1ZM53.538 25H59V21H53.02C53.078 22.408 53.256 23.754 53.538 25ZM53.02 19H59V15H53.538C53.256 16.246 53.078 17.592 53.02 19ZM54.1 13H59V7.13C56.944 7.678 55.174 9.886 54.1 13ZM67.966 13H70.958C69.654 10.966 67.8 9.32 65.61 8.27C66.58 9.554 67.38 11.164 67.966 13ZM65.9 13C64.826 9.886 63.054 7.678 61 7.13V13H65.9ZM66.46 15H61V19H66.98C66.918 17.592 66.744 16.246 66.46 15ZM66.98 21H61V25H66.46C66.744 23.754 66.922 22.408 66.98 21ZM61 27V32.872C63.054 32.322 64.826 30.114 65.9 27H61ZM67.966 27C67.38 28.836 66.576 30.444 65.61 31.73C67.8 30.68 69.654 29.036 70.958 27H67.966ZM68.488 25H72.004C72.524 23.754 72.856 22.408 72.96 21H68.98C68.926 22.394 68.756 23.736 68.488 25ZM68.488 15C68.756 16.264 68.926 17.606 68.98 19H72.962C72.856 17.592 72.524 16.246 72.004 15H68.488Z" fill="white"/>
<path d="M139.889 22.5869L132.421 19.3278V26.6055C132.421 26.6055 135.452 28.8792 140 28.8792C144.548 28.8792 147.579 26.6055 147.579 26.6055V19.2316L139.889 22.5869Z" fill="white"/>
<path d="M127 15.7216L140.111 10L153 15.6246L139.889 21.347L127 15.7216Z" fill="white"/>
<g clip-path="url(#clip0)">
<path d="M230.364 26.6364H226.545C224.139 26.6364 222.182 24.6789 222.182 22.2729C222.182 19.8668 224.139 17.9093 226.545 17.9093H230.364C230.665 17.9093 230.909 17.6653 230.909 17.3638V15.7275C230.909 14.5837 230.022 13.6535 228.901 13.5633L225.768 8.09179C225.478 7.58575 225.009 7.22407 224.448 7.07389C223.89 6.92473 223.306 7.00306 222.807 7.29387L212.068 13.5457H210.182C208.979 13.5457 208 14.5242 208 15.7275V28.8182C208 30.0215 208.979 31 210.182 31H228.727C229.93 31 230.909 30.0215 230.909 28.8182V27.1819C230.909 26.8804 230.665 26.6364 230.364 26.6364ZM226.445 11.4698L227.633 13.5457H222.879L226.445 11.4698ZM214.236 13.5457L223.356 8.23666C223.602 8.0923 223.891 8.05395 224.166 8.12748C224.445 8.20204 224.677 8.38209 224.821 8.63403L224.822 8.63603L216.39 13.5457H214.236Z" fill="white"/>
<path d="M230.363 19.0002H226.545C224.741 19.0002 223.273 20.4682 223.273 22.2728C223.273 24.0775 224.741 25.5455 226.545 25.5455H230.363C231.266 25.5455 232 24.8115 232 23.9092V20.6365C232 19.7342 231.266 19.0002 230.363 19.0002ZM226.545 23.3637C225.944 23.3637 225.454 22.8742 225.454 22.2728C225.454 21.6715 225.944 21.182 226.545 21.182C227.147 21.182 227.636 21.6715 227.636 22.2728C227.636 22.8742 227.147 23.3637 226.545 23.3637Z" fill="white"/>
</g>
<path d="M263.704 10C260.222 10 257.407 12.8148 257.407 16.2963C257.407 17.037 257.556 17.7778 257.778 18.5185L250 26.2963V30H253.704V27.7778H255.926V25.5556H258.148L261.481 22.2222C262.148 22.4444 262.889 22.5926 263.704 22.5926C267.185 22.5926 270 19.7778 270 16.2963C270 12.8149 267.185 10 263.704 10ZM265.556 16.6667C264.296 16.6667 263.333 15.7037 263.333 14.4444C263.333 13.1852 264.296 12.2222 265.556 12.2222C266.815 12.2222 267.778 13.1852 267.778 14.4444C267.778 15.7037 266.815 16.6667 265.556 16.6667Z" fill="white"/>
<path d="M290.659 22.6329C290.872 23.3628 291.167 24.0667 291.541 24.7271L290.476 26.0696C290.129 26.5084 290.168 27.134 290.559 27.5294L292.392 29.3628C292.788 29.7582 293.413 29.7929 293.852 29.4453L295.186 28.3896C295.873 28.785 296.602 29.0934 297.363 29.3106L297.563 31.0268C297.628 31.5829 298.097 32 298.653 32H301.247C301.803 32 302.272 31.5829 302.337 31.0268L302.529 29.3715C303.345 29.1586 304.127 28.8414 304.862 28.4287L306.152 29.4497C306.591 29.7972 307.216 29.7581 307.612 29.3671L309.445 27.5337C309.841 27.1383 309.875 26.5127 309.528 26.0739L308.524 24.8009C308.941 24.0796 309.267 23.3106 309.484 22.5069L311.031 22.3287C311.587 22.2636 312.004 21.7944 312.004 21.2382V18.6445C312.004 18.0883 311.587 17.6191 311.031 17.5539L309.506 17.3758C309.298 16.5807 308.985 15.8204 308.585 15.1079L309.524 13.9218C309.871 13.483 309.832 12.8573 309.441 12.462L307.612 10.6329C307.217 10.2375 306.591 10.2028 306.152 10.5503L305.001 11.4627C304.253 11.0239 303.454 10.6894 302.615 10.4634L302.442 8.97321C302.377 8.41709 301.907 8 301.351 8H298.757C298.201 8 297.732 8.41709 297.667 8.97321L297.493 10.4634C296.633 10.6937 295.812 11.0413 295.047 11.4975L293.852 10.5503C293.413 10.2028 292.788 10.2419 292.392 10.6329L290.559 12.4663C290.164 12.8617 290.129 13.4873 290.476 13.9261L291.476 15.1904C291.076 15.9117 290.772 16.6807 290.572 17.4801L288.973 17.6626C288.417 17.7277 288 18.197 288 18.7531V21.3469C288 21.903 288.417 22.3722 288.973 22.4374L290.659 22.6329ZM300.056 15.6163C302.42 15.6163 304.345 17.541 304.345 19.9045C304.345 22.268 302.42 24.1927 300.056 24.1927C297.693 24.1927 295.768 22.268 295.768 19.9045C295.768 17.541 297.693 15.6163 300.056 15.6163Z" fill="white"/>
<path d="M389.596 25.819L386.5 22.723C385.884 22.1089 384.863 22.1275 384.224 22.7659L382.665 24.3251C382.566 24.2708 382.464 24.2141 382.357 24.1539C381.372 23.6082 380.024 22.8602 378.606 21.4407C377.183 20.0182 376.434 18.6682 375.887 17.6827C375.829 17.5783 375.774 17.4776 375.719 17.382L376.766 16.3368L377.281 15.8216C377.92 15.1823 377.937 14.1615 377.322 13.5456L374.226 10.4492C373.611 9.83417 372.59 9.85283 371.951 10.4921L371.078 11.3695L371.102 11.3932C370.809 11.7665 370.565 12.197 370.383 12.6613C370.215 13.1033 370.111 13.525 370.063 13.9476C369.654 17.3363 371.203 20.4334 375.406 24.636C381.215 30.4449 385.896 30.0061 386.098 29.9847C386.538 29.9321 386.96 29.827 387.388 29.6606C387.848 29.4808 388.279 29.2367 388.652 28.9448L388.671 28.9617L389.555 28.0962C390.192 27.4571 390.211 26.4359 389.596 25.819Z" fill="white"/>
<defs>
<clipPath id="clip0">
<rect width="24" height="24" fill="white" transform="translate(208 7)"/>
</clipPath>
</defs>
</svg>
